<svg width="16" height="18" viewBox="0 0 16 18" fill="none" xmlns="http://www.w3.org/2000/svg">
<path d="M5.29295 2.59333C5.10548 2.78211 5.00017 3.03813 5.00017 3.30507C5.00017 3.57201 5.10548 3.82802 5.29295 4.0168L10.243 8.99995L5.29295 13.9831C5.11079 14.173 5.01 14.4273 5.01228 14.6912C5.01456 14.9552 5.11973 15.2077 5.30513 15.3943C5.49054 15.581 5.74135 15.6868 6.00355 15.6891C6.26575 15.6914 6.51835 15.5899 6.70695 15.4066L12.364 9.71168C12.5514 9.5229 12.6567 9.26689 12.6567 8.99995C12.6567 8.73301 12.5514 8.477 12.364 8.28821L6.70695 2.59333C6.51942 2.4046 6.26512 2.29858 5.99995 2.29858C5.73479 2.29858 5.48048 2.4046 5.29295 2.59333Z" fill="#F50A00"/>
</svg>
