<svg width="17" height="16" viewBox="0 0 17 16" fill="none" xmlns="http://www.w3.org/2000/svg">
<path d="M15.0093 5.29295C14.8205 5.10548 14.5645 5.00017 14.2976 5.00017C14.0307 5.00017 13.7746 5.10548 13.5859 5.29295L8.60271 10.243L3.61957 5.29295C3.4297 5.11079 3.17541 5.01 2.91145 5.01228C2.6475 5.01456 2.39501 5.11972 2.20836 5.30513C2.02171 5.49054 1.91584 5.74135 1.91354 6.00355C1.91125 6.26575 2.01272 6.51835 2.1961 6.70695L7.89098 12.364C8.07976 12.5514 8.33577 12.6567 8.60271 12.6567C8.86965 12.6567 9.12566 12.5514 9.31445 12.364L15.0093 6.70695C15.1981 6.51942 15.3041 6.26512 15.3041 5.99995C15.3041 5.73479 15.1981 5.48048 15.0093 5.29295Z" fill="#8B8B8B"/>
</svg>
