<svg width="25" height="23" viewBox="0 0 25 23" fill="none" xmlns="http://www.w3.org/2000/svg">
<g clip-path="url(#clip0_151_190)">
<path d="M24.36 6.77002V18.95C24.36 20.07 23.96 21.03 23.17 21.82C22.38 22.61 21.43 23 20.3 23H4.06C2.94 23 1.98 22.61 1.19 21.82C0.4 21.03 0 20.07 0 18.95V6.77002H24.36ZM21.65 18.95V9.48002H2.71V18.95C2.71 19.33 2.84 19.65 3.1 19.91C3.36 20.17 3.68 20.3 4.06 20.3H20.3C20.68 20.3 21 20.17 21.26 19.91C21.52 19.65 21.65 19.33 21.65 18.95Z" fill="#303030"/>
<path d="M24.36 2.71V5.42H0V2.71H8.12V1.36C8.12 0.97 8.25 0.65 8.51 0.39C8.77 0.13 9.09 0 9.48 0H14.89C15.27 0 15.59 0.13 15.85 0.39C16.11 0.65 16.24 0.97 16.24 1.36V2.71H24.36Z" fill="#303030"/>
<path d="M3.79004 20.25C3.88004 20.27 3.96004 20.3 4.06004 20.3H20.3C20.68 20.3 21 20.17 21.26 19.91C21.52 19.65 21.65 19.33 21.65 18.95V9.47998H21.35L3.79004 20.25Z" fill="#F50A00" fill-opacity="0.5"/>
</g>
<defs>
<clipPath id="clip0_151_190">
<rect width="24.36" height="23" fill="white"/>
</clipPath>
</defs>
</svg>
