<svg width="26" height="21" viewBox="0 0 26 21" fill="none" xmlns="http://www.w3.org/2000/svg">
<g clip-path="url(#clip0_151_207)">
<path d="M26 2.625V18.375C26 19.0918 25.75 19.7077 25.24 20.2226C24.73 20.7375 24.12 21 23.4 21H2.6C1.89 21 1.28 20.7375 0.77 20.2226C0.26 19.7077 0 19.0918 0 18.375V2.625C0 1.89808 0.26 1.28221 0.77 0.767308C1.28 0.252404 1.89 0 2.6 0H23.4C24.12 0 24.73 0.252404 25.24 0.767308C25.75 1.28221 26 1.89808 26 2.625ZM23.4 18.375V2.625H18.2V18.375H23.4ZM15.6 18.375V2.625H2.6V18.375H15.6Z" fill="#303030"/>
<path d="M22.1 3.9375H19.5V6.5625H22.1V3.9375Z" fill="#303030"/>
<path d="M21.73 9.56106C21.98 9.81346 22.1 10.1264 22.1 10.5C22.1 10.8736 21.98 11.1764 21.73 11.4288C21.48 11.6812 21.17 11.8125 20.8 11.8125C20.43 11.8125 20.13 11.6812 19.88 11.4288C19.63 11.1764 19.5 10.8635 19.5 10.5C19.5 10.1365 19.63 9.81346 19.88 9.56106C20.13 9.30865 20.44 9.1875 20.8 9.1875C21.16 9.1875 21.48 9.30865 21.73 9.56106Z" fill="#303030"/>
<path d="M21.73 14.8111C21.98 15.0635 22.1 15.3764 22.1 15.75C22.1 16.1236 21.98 16.4264 21.73 16.6788C21.48 16.9313 21.17 17.0625 20.8 17.0625C20.43 17.0625 20.13 16.9313 19.88 16.6788C19.63 16.4264 19.5 16.1135 19.5 15.75C19.5 15.3865 19.63 15.0635 19.88 14.8111C20.13 14.5587 20.44 14.4375 20.8 14.4375C21.16 14.4375 21.48 14.5587 21.73 14.8111Z" fill="#303030"/>
<path d="M15.6001 2.625V18.375H2.6001L9.3801 10.5L15.6001 2.625ZM13.8201 7.6125L11.9601 5.775C11.8601 5.90625 11.6801 6.06779 11.4401 6.25962C11.2101 6.46154 10.9701 6.5625 10.7301 6.5625C10.6201 6.5625 10.4901 6.52212 10.3401 6.44135C10.1901 6.37067 10.0101 6.25962 9.8201 6.12837C9.5401 5.95673 9.2101 5.7649 8.8301 5.55288C8.4501 5.35096 8.0001 5.25 7.4801 5.25C6.7201 5.25 6.0801 5.44183 5.5501 5.83558C5.0201 6.22933 4.6301 6.5625 4.3901 6.825L6.2401 8.6625C6.3501 8.53125 6.5301 8.35962 6.7601 8.16779C7.0001 7.96587 7.2401 7.875 7.4801 7.875C7.6101 7.875 7.7401 7.90529 7.8701 7.98606C8.0001 8.06683 8.1701 8.17789 8.3901 8.32933C8.6701 8.50096 9.0001 8.69279 9.3801 8.88462C9.7601 9.08654 10.2101 9.1875 10.7301 9.1875C11.4901 9.1875 12.1301 8.98558 12.6601 8.59183C13.1901 8.19808 13.5801 7.875 13.8201 7.6125ZM13.8201 14.175L11.9601 12.3375C11.8601 12.4688 11.6801 12.6303 11.4401 12.8221C11.2101 13.024 10.9701 13.125 10.7301 13.125C10.6201 13.125 10.4901 13.0846 10.3401 13.0038C10.1901 12.9332 10.0101 12.8221 9.8201 12.6909C9.5401 12.5192 9.2101 12.3274 8.8301 12.1154C8.4501 11.9135 8.0001 11.8125 7.4801 11.8125C6.7201 11.8125 6.0801 12.0043 5.5501 12.3981C5.0201 12.7918 4.6301 13.125 4.3901 13.3875L6.2401 15.225C6.3501 15.0938 6.5301 14.9221 6.7601 14.7303C7.0001 14.5284 7.2401 14.4375 7.4801 14.4375C7.6101 14.4375 7.7401 14.4678 7.8701 14.5486C8.0001 14.6293 8.1701 14.7404 8.3901 14.8918C8.6701 15.0635 9.0001 15.2553 9.3801 15.4471C9.7601 15.649 10.2101 15.75 10.7301 15.75C11.4901 15.75 12.1301 15.5481 12.6601 15.1543C13.1901 14.7606 13.5801 14.4375 13.8201 14.175Z" fill="#F50A00" fill-opacity="0.5"/>
<path d="M11.9599 5.775L13.8199 7.6125C13.5799 7.875 13.1899 8.19808 12.6599 8.59183C12.1299 8.98558 11.4899 9.1875 10.7299 9.1875C10.2099 9.1875 9.75989 9.08654 9.37989 8.88462C8.99989 8.69279 8.66989 8.50096 8.38989 8.32933C8.16989 8.17789 7.99989 8.06683 7.86989 7.98606C7.73989 7.90529 7.60989 7.875 7.47989 7.875C7.23989 7.875 6.99989 7.96587 6.75989 8.16779C6.52989 8.35962 6.34989 8.53125 6.23989 8.6625L4.38989 6.825C4.62989 6.5625 5.01989 6.22933 5.54989 5.83558C6.07989 5.44183 6.71989 5.25 7.47989 5.25C7.99989 5.25 8.44989 5.35096 8.82989 5.55288C9.20989 5.7649 9.53989 5.95673 9.81989 6.12837C10.0099 6.25962 10.1899 6.37067 10.3399 6.44135C10.4899 6.52212 10.6199 6.5625 10.7299 6.5625C10.9699 6.5625 11.2099 6.46154 11.4399 6.25962C11.6799 6.06779 11.8599 5.90625 11.9599 5.775Z" fill="#303030"/>
<path d="M11.9599 12.3375L13.8199 14.175C13.5799 14.4375 13.1899 14.7606 12.6599 15.1543C12.1299 15.5481 11.4899 15.75 10.7299 15.75C10.2099 15.75 9.75989 15.649 9.37989 15.4471C8.99989 15.2553 8.66989 15.0635 8.38989 14.8918C8.16989 14.7404 7.99989 14.6293 7.86989 14.5486C7.73989 14.4678 7.60989 14.4375 7.47989 14.4375C7.23989 14.4375 6.99989 14.5284 6.75989 14.7303C6.52989 14.9221 6.34989 15.0938 6.23989 15.225L4.38989 13.3875C4.62989 13.125 5.01989 12.7918 5.54989 12.3981C6.07989 12.0043 6.71989 11.8125 7.47989 11.8125C7.99989 11.8125 8.44989 11.9135 8.82989 12.1154C9.20989 12.3274 9.53989 12.5192 9.81989 12.6909C10.0099 12.8221 10.1899 12.9332 10.3399 13.0038C10.4899 13.0846 10.6199 13.125 10.7299 13.125C10.9699 13.125 11.2099 13.024 11.4399 12.8221C11.6799 12.6303 11.8599 12.4688 11.9599 12.3375Z" fill="#303030"/>
</g>
<defs>
<clipPath id="clip0_151_207">
<rect width="26" height="21" fill="white"/>
</clipPath>
</defs>
</svg>
