<svg width="26" height="24" viewBox="0 0 26 24" fill="none" xmlns="http://www.w3.org/2000/svg">
<g clip-path="url(#clip0_151_170)">
<path d="M26 5.2V20.8C26 21.51 25.74 22.12 25.24 22.63C24.73 23.14 24.11 23.4 23.4 23.4H2.6C1.88 23.4 1.27 23.14 0.76 22.63C0.25 22.12 0 21.51 0 20.8V5.2C0 4.48 0.25 3.87 0.76 3.36C1.27 2.85 1.88 2.6 2.6 2.6H6.69L9.1 0H16.9L19.3 2.6H23.4C24.11 2.6 24.73 2.85 25.24 3.36C25.74 3.87 26 4.48 26 5.2ZM23.4 20.8V5.2H18.13L15.76 2.6H10.24L7.86 5.2H2.6V20.8H23.4Z" fill="#303030"/>
<path d="M17.1399 8.85002C18.2799 9.99002 18.8499 11.37 18.8499 13C18.8499 14.63 18.2799 16 17.1399 17.14C16.0099 18.28 14.6199 18.85 12.9999 18.85C11.3799 18.85 9.9899 18.28 8.8599 17.14C7.7199 16 7.1499 14.62 7.1499 13C7.1499 11.38 7.7199 9.99002 8.8599 8.85002C9.9899 7.71002 11.3699 7.15002 12.9999 7.15002C14.6299 7.15002 16.0099 7.71002 17.1399 8.85002ZM16.2499 13C16.2499 12.09 15.9399 11.32 15.3099 10.69C14.6799 10.06 13.9099 9.75002 12.9999 9.75002C12.0899 9.75002 11.3199 10.06 10.6899 10.69C10.0599 11.32 9.7499 12.09 9.7499 13C9.7499 13.91 10.0599 14.68 10.6899 15.3C11.3199 15.93 12.0899 16.25 12.9999 16.25C13.9099 16.25 14.6799 15.93 15.3099 15.3C15.9399 14.68 16.2499 13.91 16.2499 13Z" fill="#303030"/>
<path d="M10.47 15.03C10.54 15.12 10.61 15.21 10.69 15.3C11.32 15.93 12.09 16.25 13 16.25C13.91 16.25 14.68 15.93 15.31 15.3C15.94 14.68 16.25 13.91 16.25 13C16.25 12.26 16.04 11.62 15.62 11.07L10.46 15.03H10.47Z" fill="#F50A00" fill-opacity="0.5"/>
</g>
<defs>
<clipPath id="clip0_151_170">
<rect width="26" height="23.4" fill="white"/>
</clipPath>
</defs>
</svg>
