<svg width="26" height="24" viewBox="0 0 26 24" fill="none" xmlns="http://www.w3.org/2000/svg">
<path d="M26 4.73V21.27C26 21.92 25.77 22.48 25.31 22.94C24.85 23.41 24.29 23.64 23.64 23.64H18.91C18.58 23.64 18.3 23.52 18.07 23.3C17.85 23.07 17.73 22.79 17.73 22.46C17.73 22.13 17.85 21.84 18.07 21.61C18.3 21.39 18.58 21.27 18.91 21.27H22.46V18.91H18.91C18.58 18.91 18.3 18.8 18.07 18.57C17.85 18.34 17.73 18.06 17.73 17.73C17.73 17.4 17.85 17.11 18.07 16.89C18.29 16.67 18.58 16.55 18.91 16.55H22.46V14.18H18.91C18.58 14.18 18.3 14.07 18.07 13.84C17.84 13.61 17.73 13.34 17.73 13C17.73 12.66 17.85 12.39 18.07 12.16C18.3 11.93 18.58 11.82 18.91 11.82H22.46V9.46H18.91C18.58 9.46 18.3 9.34 18.07 9.12C17.85 8.89 17.73 8.61 17.73 8.27C17.73 7.93 17.85 7.66 18.07 7.43C18.3 7.21 18.58 7.09 18.91 7.09H22.46V4.73H18.91C18.58 4.73 18.3 4.62 18.07 4.39C17.85 4.16 17.73 3.88 17.73 3.55C17.73 3.22 17.85 2.93 18.07 2.7C18.3 2.48 18.58 2.37 18.91 2.37H23.64C24.29 2.37 24.85 2.6 25.31 3.06C25.77 3.52 26 4.08 26 4.73Z" fill="#303030"/>
<path d="M13.6499 11.64L10.1699 21.27H6.3899L2.8999 11.64L6.5599 9.45999H9.9899L13.6499 11.64Z" fill="#F50A00" fill-opacity="0.5"/>
<path d="M12.35 9.425L2.92505 15.6L1.30005 11.05L7.47505 8.125L12.35 9.425Z" fill="white"/>
<path d="M16.55 10.64L11.82 23.64H4.73L0 10.64L5.91 7.09V0H10.64V7.09L16.55 10.64ZM10.17 21.27L13.65 11.64L9.99 9.46H6.56L2.9 11.64L6.39 21.27H10.17Z" fill="#303030"/>
</svg>
