<svg width="26" height="17" viewBox="0 0 26 17" fill="none" xmlns="http://www.w3.org/2000/svg">
<g clip-path="url(#clip0_151_176)">
<path d="M25.92 12.67C25.98 12.91 26 13.16 26 13.41C26 14.3 25.7 15.04 25.1 15.64C24.5 16.24 23.76 16.54 22.87 16.54C22.66 16.54 22.44 16.52 22.22 16.47C22.01 16.42 21.79 16.35 21.57 16.25L19.74 15.36H6.21L4.55 16.25C4.3 16.39 4.03 16.47 3.74 16.5C3.46 16.53 3.18 16.54 2.9 16.54C2.07 16.54 1.38 16.23 0.83 15.61C0.28 14.99 0 14.26 0 13.41C0 13.17 0.04 12.94 0.11 12.72C0.18 12.49 0.26 12.27 0.36 12.05L2.96 7.09C2.68 6.3 2.69 5.52 2.99 4.75C3.28 3.99 3.81 3.44 4.55 3.13L6.92 2.18C7.19 2.09 7.47 2.02 7.75 1.98C8.02 1.94 8.3 1.95 8.57 2.01C8.85 1.44 9.23 0.96 9.73 0.57C10.22 0.19 10.78 0 11.41 0H14.6C15.23 0 15.79 0.19 16.28 0.57C16.78 0.96 17.16 1.44 17.44 2.01C17.71 1.97 17.99 1.96 18.26 1.99C18.54 2.02 18.82 2.09 19.09 2.18L21.45 3.13C22.24 3.44 22.79 3.99 23.11 4.75C23.42 5.52 23.4 6.28 23.05 7.03L25.65 11.99C25.77 12.21 25.86 12.44 25.92 12.67ZM23.46 14C23.72 13.75 23.76 13.45 23.58 13.12L21.87 9.92L20.63 13.12L22.58 14.12C22.91 14.3 23.21 14.26 23.46 14ZM20.92 5.97C20.98 5.81 20.97 5.68 20.88 5.57C20.79 5.46 20.69 5.37 20.57 5.32L18.2 4.37C18.03 4.31 17.86 4.33 17.69 4.43C17.52 4.53 17.42 4.67 17.38 4.84L16.67 13H18.09L20.92 5.97ZM15.19 3.01C15.23 2.83 15.19 2.68 15.06 2.55C14.93 2.43 14.78 2.36 14.6 2.36H11.41C11.25 2.36 11.11 2.43 10.98 2.55C10.85 2.68 10.8 2.83 10.82 3.01L11.7 13H14.3L15.19 3.01ZM9.34 13L8.63 4.84C8.59 4.63 8.49 4.48 8.32 4.4C8.15 4.32 7.98 4.31 7.8 4.37L5.44 5.32C5.28 5.37 5.17 5.46 5.1 5.57C5.03 5.68 5.03 5.81 5.09 5.97L7.92 13H9.34ZM5.38 13.12L4.14 9.92L2.43 13.12C2.25 13.45 2.29 13.75 2.55 14C2.8 14.26 3.1 14.3 3.43 14.12L5.38 13.12Z" fill="#303030"/>
<path d="M13.0001 13H11.7001L11.2601 7.99999L10.8201 3.00999C10.8101 2.91999 10.8201 2.83999 10.8401 2.75999C10.8601 2.67999 10.9101 2.60999 10.9801 2.54999C11.0501 2.48999 11.1101 2.43999 11.1801 2.40999C11.2501 2.37999 11.3301 2.35999 11.4101 2.35999H13.0101" fill="#F50A00" fill-opacity="0.5"/>
<path d="M8.62996 4.83999L9.33996 13H7.91996L5.08996 5.96999C5.02996 5.80999 5.02996 5.67999 5.09996 5.56999C5.16996 5.45999 5.27996 5.36999 5.43996 5.31999L7.79996 4.36999C7.97996 4.30999 8.14996 4.31999 8.31996 4.39999C8.48996 4.47999 8.58996 4.62999 8.62996 4.83999Z" fill="#F50A00" fill-opacity="0.5"/>
<path d="M4.14003 9.91998L5.38003 13.12L3.43003 14.12C3.10003 14.3 2.80003 14.26 2.55003 14C2.29003 13.75 2.25003 13.45 2.43003 13.12L4.14003 9.91998Z" fill="#F50A00" fill-opacity="0.5"/>
</g>
<defs>
<clipPath id="clip0_151_176">
<rect width="26" height="16.54" fill="white"/>
</clipPath>
</defs>
</svg>
