<svg width="23" height="24" viewBox="0 0 23 24" fill="none" xmlns="http://www.w3.org/2000/svg">
<g clip-path="url(#clip0_151_183)">
<path d="M22.8001 10.14V21.6C22.8001 22.26 22.5701 22.82 22.1001 23.29C21.6301 23.76 21.0601 24 20.4001 24H12.0001C11.3401 24 10.7801 23.76 10.3101 23.29C9.8401 22.82 9.6001 22.26 9.6001 21.6V10.14C9.6001 9.62 9.7501 9.15 10.0501 8.74C10.3501 8.33 10.7401 8.04 11.2201 7.86L12.3601 7.44C12.6401 7.34 12.8501 7.19 12.9901 7C13.1301 6.81 13.2001 6.58 13.2001 6.3V1.2C13.2001 0.86 13.3201 0.57 13.5501 0.34C13.7801 0.11 14.0601 0 14.4001 0H18.0001C18.3401 0 18.6301 0.11 18.8601 0.34C19.0901 0.57 19.2001 0.86 19.2001 1.2V6.3C19.2001 6.58 19.2701 6.81 19.4101 7C19.5501 7.19 19.7601 7.34 20.0401 7.44L21.1801 7.86C21.6601 8.04 22.0501 8.33 22.3501 8.74C22.6501 9.15 22.8001 9.62 22.8001 10.14ZM20.4001 21.6V19.2H12.0001V21.6H20.4001ZM20.4001 16.8V14.4H12.0001V16.8H20.4001ZM20.4001 12V10.14L19.2601 9.72C18.5001 9.44 17.9001 9 17.4601 8.4C17.0201 7.8 16.8001 7.12 16.8001 6.36V6H15.6001V6.36C15.6001 7.12 15.3801 7.8 14.9401 8.4C14.5001 9 13.9001 9.44 13.1401 9.72L12.0001 10.14V12H20.4001ZM16.8001 3.6V2.4H15.6001V3.6H16.8001Z" fill="#303030"/>
<path d="M20.4 14.4H12V16.8H20.4V14.4Z" fill="#F50A00" fill-opacity="0.5"/>
<path d="M7.2 21.6V24H0V21.6H2.4V17.76C1.7 17.52 1.13 17.09 0.68 16.48C0.23 15.87 0 15.18 0 14.4V4.79999H7.2V14.4C7.2 15.18 6.98 15.87 6.53 16.48C6.08 17.09 5.5 17.52 4.8 17.76V21.6H7.2ZM4.8 14.4V13.2H2.4V14.4C2.4 14.74 2.52 15.02 2.75 15.25C2.98 15.48 3.26 15.6 3.6 15.6C3.94 15.6 4.23 15.48 4.46 15.25C4.69 15.02 4.8 14.74 4.8 14.4ZM4.8 10.8V7.19999H2.4V10.8H4.8Z" fill="#303030"/>
<path d="M4.7999 13.2V14.4C4.7999 14.74 4.6899 15.02 4.4599 15.25C4.2299 15.48 3.9399 15.6 3.5999 15.6C3.2599 15.6 2.9799 15.48 2.7499 15.25C2.5199 15.02 2.3999 14.74 2.3999 14.4V13.2H4.7999Z" fill="#F50A00" fill-opacity="0.5"/>
</g>
<defs>
<clipPath id="clip0_151_183">
<rect width="22.8" height="24" fill="white"/>
</clipPath>
</defs>
</svg>
