<svg width="24" height="21" viewBox="0 0 24 21" fill="none" xmlns="http://www.w3.org/2000/svg">
<g clip-path="url(#clip0_151_196)">
<path d="M23.9599 4.47C24.0399 4.77 23.9999 5.06 23.8499 5.33L21.5599 9.33C21.4099 9.6 21.1799 9.77 20.8899 9.83C20.5899 9.9 20.2999 9.86 20.0099 9.71L18.8699 9.13V19.46C18.8699 19.79 18.7599 20.06 18.5399 20.28C18.3199 20.5 18.0499 20.61 17.7199 20.61H6.27989C5.94989 20.61 5.67989 20.5 5.45989 20.28C5.23989 20.06 5.12989 19.79 5.12989 19.46V9.11L3.98989 9.73C3.71989 9.89 3.42989 9.93 3.12989 9.85C2.81989 9.77 2.59989 9.6 2.43989 9.33L0.14989 5.33C-0.000109971 5.06 -0.04011 4.77 0.03989 4.47C0.11989 4.16 0.28989 3.93 0.54989 3.78L7.13989 0H9.13989C9.30989 0 9.44989 0.06 9.54989 0.16C9.65989 0.27 9.70989 0.41 9.70989 0.58V1.15C9.70989 1.78 9.93989 2.32 10.3799 2.77C10.8299 3.21 11.3699 3.44 11.9999 3.44C12.6299 3.44 13.1699 3.21 13.6199 2.77C14.0699 2.32 14.2899 1.78 14.2899 1.15V0.58C14.2899 0.41 14.3399 0.27 14.4499 0.16C14.5499 0.06 14.6899 0 14.8599 0H16.8699L23.4499 3.78C23.7099 3.93 23.8899 4.16 23.9599 4.47ZM20.1299 7.22L21.3299 5.21L16.4099 2.35C16.1199 3.32 15.5799 4.13 14.7899 4.77C13.9999 5.41 13.0699 5.73 11.9999 5.73C10.9299 5.73 9.99989 5.41 9.20989 4.77C8.41989 4.13 7.87989 3.32 7.58989 2.35L2.66989 5.21L3.86989 7.22L7.41989 5.27V18.32H16.5799V5.27L20.1299 7.22Z" fill="#303030"/>
<path d="M21.3299 5.20998L20.1299 7.21998L16.5799 5.26998V18.32H7.41992V5.26998L3.86992 7.21998L2.66992 5.20998L7.58992 2.34998C7.87992 3.31998 8.41992 4.12998 9.20992 4.76998C9.99992 5.40998 10.9299 5.72998 11.9999 5.72998C13.0699 5.72998 13.9999 5.40998 14.7899 4.76998C15.5799 4.12998 16.1199 3.31998 16.4099 2.34998L21.3299 5.20998Z" fill="#F50A00" fill-opacity="0.5"/>
</g>
<defs>
<clipPath id="clip0_151_196">
<rect width="24" height="20.61" fill="white"/>
</clipPath>
</defs>
</svg>
