<svg width="24" height="24" viewBox="0 0 24 24" fill="none" xmlns="http://www.w3.org/2000/svg">
<g clip-path="url(#clip0_151_159)">
<path d="M24 0V12C24 15.35 22.84 18.19 20.52 20.51C18.2 22.83 15.35 24 12 24C10.6 24 9.29 23.78 8.05 23.34C6.81 22.91 5.68 22.29 4.65 21.49L2.55 23.55C2.28 23.82 1.93 23.96 1.5 23.96C1.07 23.96 0.73 23.82 0.45 23.55C0.18 23.27 0.04 22.92 0.04 22.5C0.04 22.08 0.18 21.72 0.45 21.45L2.52 19.39C1.72 18.36 1.1 17.22 0.66 15.97C0.22 14.72 0 13.4 0 12C0 8.65 1.17 5.81 3.49 3.49C5.81 1.17 8.65 0 12 0H24ZM21 12V3H12C9.5 3 7.38 3.87 5.63 5.62C3.88 7.37 3 9.5 3 12C3 12.97 3.15 13.91 3.45 14.79C3.75 15.68 4.17 16.49 4.69 17.21L12.45 9.45C12.73 9.17 13.08 9.04 13.5 9.04C13.92 9.04 14.28 9.17 14.55 9.45C14.85 9.75 15 10.11 15 10.52C15 10.93 14.85 11.29 14.55 11.59L6.79 19.35C7.52 19.87 8.32 20.28 9.21 20.57C10.1 20.86 11.03 21 12 21C14.5 21 16.63 20.12 18.38 18.37C20.13 16.62 21 14.5 21 12Z" fill="#303030"/>
<path d="M4.69 17.21L12.45 9.45C12.73 9.17 13.08 9.04 13.5 9.04C13.85 9.04 14.14 9.15 14.38 9.34L20.72 3H12C9.5 3 7.38 3.87 5.63 5.62C3.88 7.37 3 9.5 3 12C3 12.97 3.15 13.91 3.45 14.79C3.75 15.68 4.17 16.49 4.69 17.21Z" fill="#F50A00" fill-opacity="0.5"/>
</g>
<defs>
<clipPath id="clip0_151_159">
<rect width="24" height="24" fill="white"/>
</clipPath>
</defs>
</svg>
