<svg width="26" height="21" viewBox="0 0 26 21" fill="none" xmlns="http://www.w3.org/2000/svg">
<g clip-path="url(#clip0_151_164)">
<path d="M26.0001 6.50001V19.5C26.0001 19.86 25.8801 20.17 25.6301 20.42C25.3801 20.67 25.0701 20.8 24.7001 20.8H16.9001C16.5301 20.8 16.2201 20.67 15.9801 20.42C15.7301 20.17 15.6001 19.86 15.6001 19.5V6.50001C15.6001 6.13001 15.7301 5.82001 15.9801 5.57001C16.2201 5.32001 16.5301 5.20001 16.9001 5.20001H24.7001C25.0701 5.20001 25.3801 5.32001 25.6301 5.57001C25.8801 5.82001 26.0001 6.13001 26.0001 6.50001ZM23.4001 16.9V7.80001H18.2001V16.9H23.4001Z" fill="#303030"/>
<path d="M24.7 0V2.6H5.2V16.9H13V20.8H0V16.9H2.6V2.6C2.6 1.88 2.86 1.27 3.37 0.76C3.87 0.25 4.49 0 5.2 0H24.7Z" fill="#303030"/>
<path d="M18.2 11.92V16.9H23.4V7.90997L18.2 11.92Z" fill="#F50A00" fill-opacity="0.5"/>
</g>
<defs>
<clipPath id="clip0_151_164">
<rect width="26" height="20.8" fill="white"/>
</clipPath>
</defs>
</svg>
