<svg width="60" height="60" viewBox="0 0 60 60" fill="none" xmlns="http://www.w3.org/2000/svg">
<circle cx="30" cy="30" r="30" transform="matrix(-1 0 0 1 60 0)" fill="white"/>
<path d="M26.1506 21.4266C25.8668 21.6998 25.7074 22.0704 25.7074 22.4568C25.7074 22.8431 25.8668 23.2137 26.1506 23.4869L33.6435 30.6996L26.1506 37.9122C25.8748 38.187 25.7222 38.5551 25.7257 38.9372C25.7291 39.3192 25.8883 39.6847 26.169 39.9548C26.4497 40.225 26.8293 40.3782 27.2262 40.3815C27.6231 40.3849 28.0055 40.238 28.291 39.9726L36.8542 31.7297C37.1379 31.4565 37.2974 31.0859 37.2974 30.6996C37.2974 30.3132 37.1379 29.9427 36.8542 29.6694L28.291 21.4266C28.0071 21.1534 27.6222 21 27.2208 21C26.8194 21 26.4344 21.1534 26.1506 21.4266Z" fill="#BBBBBB"/>
</svg>
