<svg width="18" height="18" viewBox="0 0 18 18" fill="none" xmlns="http://www.w3.org/2000/svg">
<path d="M8.92035 17C9.96067 17.0014 10.991 16.795 11.9521 16.3929C12.9132 15.9908 13.7862 15.4008 14.5208 14.6568C15.2574 13.9148 15.8415 13.033 16.2397 12.0622C16.6378 11.0915 16.842 10.0508 16.8407 9C16.842 7.94923 16.6378 6.90855 16.2396 5.93777C15.8415 4.96699 15.2574 4.08525 14.5208 3.3432C13.7862 2.59922 12.9132 2.00921 11.9521 1.60708C10.991 1.20496 9.96067 0.998645 8.92035 1.00001C7.88005 0.998667 6.84973 1.20499 5.88861 1.60711C4.9275 2.00923 4.05453 2.59923 3.31988 3.3432C2.58331 4.08525 1.99919 4.96699 1.60107 5.93777C1.20295 6.90855 0.99868 7.94923 1.00001 9C0.998659 10.0508 1.20291 11.0915 1.60104 12.0622C1.99916 13.033 2.58329 13.9148 3.31988 14.6568C4.05453 15.4008 4.9275 15.9908 5.88861 16.3929C6.84973 16.795 7.88005 17.0013 8.92035 17Z" stroke="#8B8B8B" stroke-width="2" stroke-linejoin="round"/>
<path fill-rule="evenodd" clip-rule="evenodd" d="M8.92034 14.1999C9.18292 14.1999 9.43474 14.0946 9.62041 13.9071C9.80608 13.7195 9.91038 13.4652 9.91038 13.2C9.91038 12.9347 9.80608 12.6804 9.62041 12.4928C9.43474 12.3053 9.18292 12.2 8.92034 12.2C8.65777 12.2 8.40594 12.3053 8.22027 12.4928C8.03461 12.6804 7.9303 12.9347 7.9303 13.2C7.9303 13.4652 8.03461 13.7195 8.22027 13.9071C8.40594 14.0946 8.65777 14.1999 8.92034 14.1999Z" fill="#8B8B8B"/>
<path d="M8.92041 4.19995V10.5999" stroke="#8B8B8B" stroke-width="2" stroke-linecap="round" stroke-linejoin="round"/>
</svg>
