<svg width="16" height="17" viewBox="0 0 16 17" fill="none" xmlns="http://www.w3.org/2000/svg">
<path d="M5.29295 1.64695C5.10548 1.83573 5.00017 2.09175 5.00017 2.35868C5.00017 2.62562 5.10548 2.88164 5.29295 3.07042L10.243 8.05357L5.29295 13.0367C5.11079 13.2266 5.01 13.4809 5.01228 13.7448C5.01456 14.0088 5.11973 14.2613 5.30513 14.4479C5.49054 14.6346 5.74135 14.7404 6.00355 14.7427C6.26575 14.745 6.51835 14.6436 6.70695 14.4602L12.364 8.7653C12.5514 8.57652 12.6567 8.32051 12.6567 8.05357C12.6567 7.78663 12.5514 7.53062 12.364 7.34183L6.70695 1.64695C6.51942 1.45822 6.26512 1.3522 5.99995 1.3522C5.73479 1.3522 5.48048 1.45822 5.29295 1.64695Z" fill="#D9D9D9"/>
</svg>
