<svg width="60" height="60" viewBox="0 0 60 60" fill="none" xmlns="http://www.w3.org/2000/svg">
<circle cx="30" cy="30" r="30" fill="white"/>
<path d="M33.8494 21.4266C34.1332 21.6998 34.2926 22.0704 34.2926 22.4568C34.2926 22.8431 34.1332 23.2137 33.8494 23.4869L26.3565 30.6996L33.8494 37.9122C34.1252 38.187 34.2778 38.5551 34.2743 38.9372C34.2709 39.3192 34.1117 39.6847 33.831 39.9548C33.5503 40.225 33.1707 40.3782 32.7738 40.3815C32.3769 40.3849 31.9945 40.238 31.709 39.9726L23.1458 31.7297C22.8621 31.4565 22.7026 31.0859 22.7026 30.6996C22.7026 30.3132 22.8621 29.9427 23.1458 29.6694L31.709 21.4266C31.9929 21.1534 32.3778 21 32.7792 21C33.1806 21 33.5656 21.1534 33.8494 21.4266Z" fill="#BBBBBB"/>
</svg>
