<svg width="13" height="13" viewBox="0 0 13 13" fill="none" xmlns="http://www.w3.org/2000/svg">
<path d="M12.8008 11.6951L9.85372 8.74807C10.5632 7.80353 10.9463 6.65382 10.945 5.47248C10.945 2.45497 8.48999 0 5.47248 0C2.45497 0 0 2.45497 0 5.47248C0 8.48999 2.45497 10.945 5.47248 10.945C6.65382 10.9463 7.80353 10.5632 8.74807 9.85372L11.6951 12.8008C11.8443 12.9341 12.0389 13.0053 12.2389 12.9997C12.4389 12.9941 12.6292 12.9121 12.7707 12.7707C12.9121 12.6292 12.9941 12.4389 12.9997 12.2389C13.0053 12.0389 12.9341 11.8443 12.8008 11.6951ZM1.56357 5.47248C1.56357 4.69937 1.79282 3.94362 2.22234 3.3008C2.65185 2.65799 3.26234 2.15697 3.9766 1.86111C4.69086 1.56526 5.47682 1.48785 6.23507 1.63867C6.99333 1.7895 7.68983 2.16179 8.2365 2.70846C8.78317 3.25513 9.15546 3.95163 9.30629 4.70989C9.45711 5.46814 9.3797 6.2541 9.08385 6.96836C8.78799 7.68262 8.28697 8.29311 7.64416 8.72262C7.00134 9.15214 6.24559 9.38139 5.47248 9.38139C4.43615 9.38015 3.44263 8.96792 2.70983 8.23513C1.97704 7.50233 1.56481 6.50881 1.56357 5.47248Z" fill="#8B8B8B"/>
</svg>
